# xmcd
#
# Track frame offsets: 
#        150
#        16023
#        31156
#        48237
#        66567
#        88323
#        110713
#        129302
#        154177
#        171143
#        191421
#        209293
#        228189
#
# Disc length: 3170 seconds
#
# Revision: 2
# Processed by: cddbd v1.5.2PL0 Copyright (c) Steve Scherf et al.
# Submitted via: ExactAudioCopy v0.99pb5
#
DISCID=a80c600d
DTITLE=Die Cuba Boarischen - Die Cuba Boarischen
DYEAR=2006
DGENRE=Salsa
TTITLE0=Yu ya
TTITLE1=El Cafetal
TTITLE2=Cantinero de Cuba
TTITLE3=Rehragout-Manisero
TTITLE4=Tu recuerdo conmigo
TTITLE5=Pa la costa
TTITLE6=Urlaubszeitbolero
TTITLE7=La Negra Tomasa
TTITLE8=Compadre Pedro Juan
TTITLE9=Cha cha de Cuba
TTITLE10=Stadltür-Marinero
TTITLE11=Perfidia
TTITLE12=Polka vom Kaufmann Schorsch
EXTD=
EXTT0=
EXTT1=
EXTT2=
EXTT3=
EXTT4=
EXTT5=
EXTT6=
EXTT7=
EXTT8=
EXTT9=
EXTT10=
EXTT11=
EXTT12=
PLAYORDER=
